<?xml version="1.0" encoding="UTF-8" standalone="no"?>
<!-- Generator: Adobe Illustrator 27.5.0, SVG Export Plug-In . SVG Version: 6.00 Build 0)  -->

<svg
   version="1.1"
   x="0px"
   y="0px"
   viewBox="0 0 650 500"
   style="enable-background:new 0 0 650 500;"
   xml:space="preserve"
   id="svg242"
   sodipodi:docname="hero-img.svg"
   inkscape:version="1.3 (0e150ed, 2023-07-21)"
   xmlns:inkscape="http://www.inkscape.org/namespaces/inkscape"
   xmlns:sodipodi="http://sodipodi.sourceforge.net/DTD/sodipodi-0.dtd"
   xmlns:xlink="http://www.w3.org/1999/xlink"
   xmlns="http://www.w3.org/2000/svg"
   xmlns:svg="http://www.w3.org/2000/svg"><defs
   id="defs242" /><sodipodi:namedview
   id="namedview242"
   pagecolor="#505050"
   bordercolor="#eeeeee"
   borderopacity="1"
   inkscape:showpageshadow="0"
   inkscape:pageopacity="0"
   inkscape:pagecheckerboard="0"
   inkscape:deskcolor="#505050"
   showgrid="false"
   inkscape:zoom="1.01"
   inkscape:cx="325.24752"
   inkscape:cy="257.92079"
   inkscape:window-width="1366"
   inkscape:window-height="696"
   inkscape:window-x="0"
   inkscape:window-y="0"
   inkscape:window-maximized="1"
   inkscape:current-layer="svg242" />&#10;&#10;<g
   id="OBJECTS">&#10;	&#10;	<g
   id="g21">&#10;		<defs
   id="defs1">&#10;			<rect
   id="SVGID_1_"
   x="461.832"
   y="207.607"
   width="167.907"
   height="237.149" />&#10;		</defs>&#10;		<clipPath
   id="SVGID_00000057137885840942610050000013350273745648892075_">&#10;			<use
   xlink:href="#SVGID_1_"
   style="overflow:visible;"
   id="use1" />&#10;		</clipPath>&#10;		<g
   style="clip-path:url(#SVGID_00000057137885840942610050000013350273745648892075_);"
   clip-path="url(#SVGID_00000057137885840942610050000013350273745648892075_)"
   id="g20">&#10;			<g
   id="g7">&#10;				<g
   id="g2">&#10;					<path
   style="fill:#FFA727;"
   d="M470.941,237.903c11.485,175.48,77.342,209.55,77.342,209.55S576.214,378.767,470.941,237.903z"
   id="path2" />&#10;				</g>&#10;				<g
   id="g3">&#10;					&#10;						<rect
   x="513.807"
   y="263.793"
   transform="matrix(0.9381 -0.3463 0.3463 0.9381 -91.2434 200.065)"
   style="fill:#25292B;"
   width="0.999"
   height="183.211"
   id="rect2" />&#10;				</g>&#10;				<g
   id="g4">&#10;					<polygon
   style="fill:#25292B;"
   points="502.458,323.295 480.64,301.036 481.354,300.337 501.612,321.004 503.585,292.131        504.583,292.2      "
   id="polygon3" />&#10;				</g>&#10;				<g
   id="g5">&#10;					<polygon
   style="fill:#25292B;"
   points="535.384,412.504 513.565,390.244 514.28,389.545 534.538,410.213 536.511,381.339        537.509,381.408      "
   id="polygon4" />&#10;				</g>&#10;				<g
   id="g6">&#10;					<polygon
   style="fill:#25292B;"
   points="517.86,365.028 496.043,342.769 496.758,342.07 517.015,362.737 518.988,333.864        519.986,333.932      "
   id="polygon5" />&#10;				</g>&#10;			</g>&#10;			<g
   id="g13">&#10;				<g
   id="g8">&#10;					<path
   style="fill:#FFA727;"
   d="M625.702,237.903c-11.485,175.48-77.342,209.55-77.342,209.55S520.429,378.767,625.702,237.903z       "
   id="path7" />&#10;				</g>&#10;				<g
   id="g9">&#10;					&#10;						<rect
   x="490.732"
   y="354.899"
   transform="matrix(0.346 -0.9382 0.9382 0.346 47.4113 778.8124)"
   style="fill:#25292B;"
   width="183.21"
   height="0.999"
   id="rect8" />&#10;				</g>&#10;				<g
   id="g10">&#10;					<polygon
   style="fill:#25292B;"
   points="594.185,323.296 592.06,292.2 593.058,292.131 595.03,321.005 615.288,300.337        616.003,301.036      "
   id="polygon9" />&#10;				</g>&#10;				<g
   id="g11">&#10;					<polygon
   style="fill:#25292B;"
   points="561.26,412.504 559.135,381.408 560.133,381.339 562.105,410.213 582.363,389.545        583.078,390.244      "
   id="polygon10" />&#10;				</g>&#10;				<g
   id="g12">&#10;					<polygon
   style="fill:#25292B;"
   points="578.782,365.028 576.657,333.932 577.655,333.864 579.628,362.737 599.886,342.07        600.601,342.769      "
   id="polygon11" />&#10;				</g>&#10;			</g>&#10;			<g
   id="g19">&#10;				<g
   id="g14">&#10;					<path
   style="fill:#FFBD29;"
   d="M548.334,224.086c49.986,168.602,0,223.368,0,223.368S498.348,392.687,548.334,224.086z"
   id="path13" />&#10;				</g>&#10;				<g
   id="g15">&#10;					<rect
   x="547.835"
   y="257.723"
   style="fill:#25292B;"
   width="1"
   height="183.211"
   id="rect14" />&#10;				</g>&#10;				<g
   id="g16">&#10;					<polygon
   style="fill:#25292B;"
   points="548.335,315.11 535.574,286.672 536.486,286.262 548.335,312.666 560.183,286.262        561.095,286.672      "
   id="polygon15" />&#10;				</g>&#10;				<g
   id="g17">&#10;					<polygon
   style="fill:#25292B;"
   points="548.335,410.201 535.574,381.763 536.486,381.353 548.335,407.757 560.183,381.353        561.095,381.763      "
   id="polygon16" />&#10;				</g>&#10;				<g
   id="g18">&#10;					<polygon
   style="fill:#25292B;"
   points="548.335,359.594 535.574,331.157 536.486,330.746 548.335,357.151 560.183,330.746        561.095,331.157      "
   id="polygon17" />&#10;				</g>&#10;			</g>&#10;		</g>&#10;	</g>&#10;	<g
   id="g51">&#10;		<g
   id="g50">&#10;			<g
   id="g23">&#10;				<g
   id="g22">&#10;					<path
   style="fill:#25292B;"
   d="M514.608,257.471L514.608,257.471c-0.179,0-0.344-0.096-0.433-0.25l-4.717-8.165       c-0.09-0.154-0.09-0.346,0-0.5l4.717-8.164c0.089-0.154,0.254-0.25,0.433-0.25l0,0c0.179,0,0.344,0.095,0.433,0.249       l4.728,8.164c0.09,0.155,0.09,0.347,0,0.502l-4.728,8.165C514.952,257.376,514.787,257.471,514.608,257.471z M510.469,248.806       l4.141,7.166l4.148-7.166l-4.148-7.165L510.469,248.806z"
   id="path21" />&#10;				</g>&#10;			</g>&#10;			<g
   id="g25">&#10;				<g
   id="g24">&#10;					<path
   style="fill:#25292B;"
   d="M501.492,247.689c-1.57,0-2.849-1.278-2.849-2.849s1.278-2.848,2.849-2.848       s2.848,1.277,2.848,2.848S503.062,247.689,501.492,247.689z M501.492,242.992c-1.02,0-1.849,0.829-1.849,1.848       c0,1.02,0.829,1.849,1.849,1.849c1.019,0,1.848-0.829,1.848-1.849C503.34,243.821,502.511,242.992,501.492,242.992z"
   id="path23" />&#10;				</g>&#10;			</g>&#10;			<g
   id="g27">&#10;				<g
   id="g26">&#10;					<path
   style="fill:#25292B;"
   d="M509.891,237.212c-1.372,0-2.488-1.116-2.488-2.488c0-1.371,1.116-2.487,2.488-2.487       s2.488,1.116,2.488,2.487C512.38,236.096,511.264,237.212,509.891,237.212z M509.891,233.236c-0.82,0-1.488,0.667-1.488,1.487       s0.668,1.488,1.488,1.488s1.488-0.668,1.488-1.488S510.712,233.236,509.891,233.236z"
   id="path25" />&#10;				</g>&#10;			</g>&#10;			<g
   id="g29">&#10;				<g
   id="g28">&#10;					<path
   style="fill:#25292B;"
   d="M499.143,238.358c-1.016,0-1.842-0.826-1.842-1.842s0.826-1.843,1.842-1.843       s1.842,0.827,1.842,1.843S500.159,238.358,499.143,238.358z M499.143,235.673c-0.464,0-0.842,0.378-0.842,0.843       c0,0.464,0.378,0.842,0.842,0.842s0.842-0.378,0.842-0.842C499.985,236.051,499.607,235.673,499.143,235.673z"
   id="path27" />&#10;				</g>&#10;			</g>&#10;			<g
   id="g31">&#10;				<g
   id="g30">&#10;					<path
   style="fill:#25292B;"
   d="M218.999,144.684L218.999,144.684c-0.179,0-0.344-0.095-0.433-0.25l-3.608-6.247       c-0.09-0.155-0.09-0.345,0-0.5l3.608-6.247c0.089-0.155,0.254-0.25,0.433-0.25l0,0c0.179,0,0.344,0.095,0.433,0.25l3.617,6.247       c0.09,0.155,0.09,0.346,0,0.501l-3.617,6.247C219.343,144.588,219.178,144.684,218.999,144.684z M215.968,137.937l3.032,5.249       l3.038-5.249L219,132.688L215.968,137.937z"
   id="path29" />&#10;				</g>&#10;			</g>&#10;			<g
   id="g33">&#10;				<g
   id="g32">&#10;					<path
   style="fill:#25292B;"
   d="M210.461,135.305c-1.57,0-2.849-1.278-2.849-2.848c0-1.571,1.278-2.849,2.849-2.849       s2.848,1.278,2.848,2.849C213.308,134.027,212.031,135.305,210.461,135.305z M210.461,130.608c-1.02,0-1.849,0.829-1.849,1.849       c0,1.019,0.829,1.848,1.849,1.848c1.019,0,1.848-0.829,1.848-1.848C212.308,131.438,211.479,130.608,210.461,130.608z"
   id="path31" />&#10;				</g>&#10;			</g>&#10;			<g
   id="g35">&#10;				<g
   id="g34">&#10;					<path
   style="fill:#25292B;"
   d="M218.86,128.26c-1.372,0-2.488-1.116-2.488-2.488c0-1.372,1.116-2.488,2.488-2.488       s2.488,1.116,2.488,2.488C221.348,127.144,220.232,128.26,218.86,128.26z M218.86,124.284c-0.82,0-1.488,0.667-1.488,1.488       c0,0.821,0.668,1.488,1.488,1.488s1.488-0.667,1.488-1.488C220.348,124.952,219.681,124.284,218.86,124.284z"
   id="path33" />&#10;				</g>&#10;			</g>&#10;			<g
   id="g37">&#10;				<g
   id="g36">&#10;					<path
   style="fill:#25292B;"
   d="M210.461,125.626c-1.016,0-1.842-0.826-1.842-1.842s0.826-1.842,1.842-1.842       s1.842,0.827,1.842,1.842S211.476,125.626,210.461,125.626z M210.461,122.942c-0.464,0-0.842,0.378-0.842,0.842       s0.378,0.842,0.842,0.842s0.842-0.377,0.842-0.842S210.925,122.942,210.461,122.942z"
   id="path35" />&#10;				</g>&#10;			</g>&#10;			<g
   id="g39">&#10;				<g
   id="g38">&#10;					<path
   style="fill:#25292B;"
   d="M62.693,430.838L62.693,430.838c-0.179,0-0.344-0.096-0.433-0.25l-4.717-8.165       c-0.089-0.154-0.089-0.346,0-0.5l4.717-8.164c0.089-0.154,0.254-0.25,0.433-0.25l0,0c0.178,0,0.343,0.095,0.433,0.249       l4.727,8.164c0.09,0.155,0.09,0.347,0,0.502l-4.727,8.165C63.036,430.743,62.871,430.838,62.693,430.838z M58.554,422.173       l4.14,7.166l4.149-7.166l-4.149-7.165L58.554,422.173z"
   id="path37" />&#10;				</g>&#10;			</g>&#10;			<g
   id="g41">&#10;				<g
   id="g40">&#10;					<path
   style="fill:#25292B;"
   d="M82.285,425.615c-1.571,0-2.849-1.277-2.849-2.848s1.278-2.849,2.849-2.849       c1.57,0,2.848,1.278,2.848,2.849S83.855,425.615,82.285,425.615z M82.285,420.919c-1.02,0-1.849,0.829-1.849,1.849       c0,1.019,0.829,1.848,1.849,1.848c1.019,0,1.848-0.829,1.848-1.848C84.133,421.748,83.304,420.919,82.285,420.919z"
   id="path39" />&#10;				</g>&#10;			</g>&#10;			<g
   id="g43">&#10;				<g
   id="g42">&#10;					<path
   style="fill:#25292B;"
   d="M58.234,410.579c-1.372,0-2.488-1.116-2.488-2.487c0-1.372,1.116-2.488,2.488-2.488       c1.372,0,2.488,1.116,2.488,2.488C60.722,409.463,59.606,410.579,58.234,410.579z M58.234,406.603       c-0.82,0-1.488,0.668-1.488,1.488s0.667,1.487,1.488,1.487c0.821,0,1.488-0.667,1.488-1.487S59.054,406.603,58.234,406.603z"
   id="path41" />&#10;				</g>&#10;			</g>&#10;			<g
   id="g45">&#10;				<g
   id="g44">&#10;					<path
   style="fill:#25292B;"
   d="M72.42,419.96c-1.016,0-1.842-0.826-1.842-1.842s0.826-1.842,1.842-1.842       s1.842,0.826,1.842,1.842S73.435,419.96,72.42,419.96z M72.42,417.276c-0.464,0-0.842,0.378-0.842,0.842       s0.377,0.842,0.842,0.842s0.842-0.378,0.842-0.842S72.884,417.276,72.42,417.276z"
   id="path43" />&#10;				</g>&#10;			</g>&#10;			<g
   id="g47">&#10;				<g
   id="g46">&#10;					<path
   style="fill:#25292B;"
   d="M72.986,410.579L72.986,410.579c-0.179,0-0.344-0.096-0.433-0.25l-2.962-5.127       c-0.089-0.154-0.089-0.346,0-0.5l2.962-5.128c0.089-0.154,0.254-0.25,0.433-0.25l0,0c0.178,0,0.343,0.095,0.433,0.249       l2.969,5.128c0.09,0.155,0.09,0.347,0,0.502l-2.969,5.127C73.329,410.484,73.164,410.579,72.986,410.579z M70.601,404.952       l2.385,4.128l2.391-4.128l-2.391-4.129L70.601,404.952z"
   id="path45" />&#10;				</g>&#10;			</g>&#10;			<g
   id="g49">&#10;				<g
   id="g48">&#10;					<path
   style="fill:#25292B;"
   d="M47.343,429.777c-1.016,0-1.842-0.826-1.842-1.842s0.826-1.842,1.842-1.842       s1.842,0.826,1.842,1.842S48.359,429.777,47.343,429.777z M47.343,427.094c-0.464,0-0.842,0.378-0.842,0.842       s0.377,0.842,0.842,0.842s0.842-0.378,0.842-0.842S47.808,427.094,47.343,427.094z"
   id="path47" />&#10;				</g>&#10;			</g>&#10;		</g>&#10;	</g>&#10;	<g
   id="g96">&#10;		<g
   id="g52">&#10;			<path
   style="fill:#25292B;"
   d="M485.731,259.905c-2.271,28.237-37.543,16.903-54.32,28.389     c-10.542,7.467-18.833,20.116-32.74,21.261c-13.409,1.025-22.527-12.388-35.94-11.38c-14.564,0.563-28.463,10.345-43.24,6.41     c-7.46-2.06-14.63-7.88-15.66-15.95c-1-7.85,4.7-13.65,8.05-20.09c9.496-23.497-33.099-19.62-2.108-58.17     c5.562-7.182,4.205-16.015-2.283-22.03c-8.395-10.645-8.634-27.717,7.513-30.34c12.18-3.45,21.989-11.682,32.859-17.781     c24.29-15.827,60.366-3.254,67.67,25.291c3.471,11.333-1.8,21.473,12.051,27.978c25.613,8.361,19.873,10.523,26.647,33.151     C462.414,239.685,484.976,241.84,485.731,259.905z"
   id="path51" />&#10;		</g>&#10;		<g
   id="g67">&#10;			<g
   id="g54">&#10;				<g
   id="g53">&#10;					<path
   style="fill:#F2E9DA;"
   d="M415.601,211.525c-2.42,9.26-8.25,15.03-16.86,13.82l7.78,32.08l0.89,3.65l-14.65,15.04       c-4.6,4.72-10.55,6.97-16.45,6.97c-8.5,0-16.88-4.66-20.91-13.27l1.17-4.71l1.69-6.77l-1.41-0.44       c-5.42-1.73-10.55-4.3-15.16-7.63c-5.84-4.21-10.56-9.61-13.92-15.75c-3.35-6.15-5.34-13.04-5.71-20.24l-1.09-21.21       c0.84-3.68,2.32-6.88,4.14-9.63c6.24-9.51,16.23-13.65,16.23-13.65c2.13,3.42,4.62,6.34,7.31,8.88       c15.88,14.87,39.13,15.51,40.68,15.53l0.09,0.01v0.12c0.02,0,0.04-0.02,0.04-0.03c2.84-3.09,6.56-5.11,10.54-5.68       c2.06-0.29,4.2-0.18,6.31,0.36C415.501,191.395,418.211,201.575,415.601,211.525z"
   id="path52" />&#10;				</g>&#10;			</g>&#10;			<g
   id="g56">&#10;				<g
   id="g55">&#10;					&#10;						<ellipse
   transform="matrix(0.9725 -0.2327 0.2327 0.9725 -41.289 82.4963)"
   style="fill:#25292B;"
   cx="328.939"
   cy="216.213"
   rx="4.674"
   ry="5.17"
   id="ellipse54" />&#10;				</g>&#10;			</g>&#10;			<g
   id="g58">&#10;				<g
   id="g57">&#10;					&#10;						<ellipse
   transform="matrix(0.9725 -0.2327 0.2327 0.9725 -38.9912 88.7457)"
   style="fill:#25292B;"
   cx="356.57"
   cy="209.601"
   rx="4.674"
   ry="5.17"
   id="ellipse56" />&#10;				</g>&#10;			</g>&#10;			<g
   id="g60">&#10;				<g
   id="g59">&#10;					<path
   style="fill:#25292B;"
   d="M329.895,203.561c-3.716-0.271-7.456,1.271-9.705,4.299c-0.447,0.602-0.481,1.522,0.158,2.022       c0.577,0.452,1.544,0.485,2.022-0.158c0.221-0.297,0.455-0.583,0.709-0.853c0.124-0.132,0.253-0.259,0.384-0.384       c0.014-0.013,0.03-0.027,0.046-0.04c0.07-0.06,0.141-0.119,0.213-0.178c0.287-0.233,0.589-0.449,0.901-0.647       c0.156-0.099,0.316-0.192,0.477-0.284c0.029-0.016,0.056-0.032,0.078-0.043c0.09-0.045,0.182-0.089,0.273-0.131       c0.337-0.154,0.682-0.289,1.034-0.404c0.176-0.058,0.353-0.11,0.532-0.157c0.089-0.024,0.179-0.046,0.269-0.067       c0.005-0.001,0.001,0,0.005-0.001c0.011-0.002,0.005,0,0.026-0.004c0.365-0.064,0.73-0.115,1.1-0.14       c0.185-0.012,0.369-0.019,0.554-0.02c0.092-0.001,0.185,0.001,0.277,0.003c0.025,0,0.037,0,0.047,0       c0.018,0.001,0.029,0.002,0.054,0.004c0.745,0.054,1.559-0.308,1.681-1.136C331.133,204.548,330.695,203.619,329.895,203.561z"
   id="path58" />&#10;				</g>&#10;			</g>&#10;			<g
   id="g62">&#10;				<g
   id="g61">&#10;					<path
   style="fill:#25292B;"
   d="M349.759,200.76c0.484,0.683,1.373,0.637,2.013,0.252c0.021-0.013,0.03-0.018,0.046-0.028       c0.009-0.004,0.02-0.01,0.042-0.021c0.082-0.043,0.163-0.087,0.246-0.128c0.165-0.083,0.333-0.16,0.503-0.233       c0.341-0.145,0.69-0.265,1.044-0.373c0.02-0.006,0.014-0.005,0.025-0.008c0.004-0.001,0.001,0,0.005-0.001       c0.09-0.022,0.18-0.043,0.27-0.062c0.181-0.039,0.363-0.072,0.546-0.101c0.366-0.057,0.735-0.093,1.105-0.107       c0.101-0.004,0.202-0.006,0.303-0.007c0.024,0.001,0.056,0.002,0.089,0.003c0.185,0.009,0.37,0.019,0.554,0.037       c0.368,0.035,0.735,0.091,1.096,0.169c0.09,0.019,0.18,0.041,0.27,0.062c0.019,0.005,0.04,0.01,0.059,0.015       c0.173,0.052,0.346,0.107,0.516,0.168c0.349,0.125,0.687,0.274,1.019,0.439c0.717,0.357,1.565-0.11,1.874-0.775       c0.343-0.735-0.104-1.54-0.775-1.874c-3.375-1.682-7.408-1.363-10.599,0.561C349.323,199.161,349.354,200.188,349.759,200.76z"
   id="path60" />&#10;				</g>&#10;			</g>&#10;			<g
   id="g63">&#10;				<path
   style="fill:#25292B;"
   d="M401.459,220.682c-0.265,0-0.485-0.207-0.499-0.475c-0.015-0.275,0.197-0.511,0.474-0.524      c3.037-0.156,5.949-2.236,7.083-5.059s0.47-6.339-1.615-8.553c-1.099-1.168-2.479-1.864-3.786-1.91      c-1.487-0.09-2.854,0.782-3.319,1.981c-0.084,0.217-0.308,0.344-0.536,0.314c-0.23-0.033-0.407-0.22-0.428-0.452      c-0.175-2-0.274-4.357,0.305-6.669c0.617-2.458,1.944-4.457,3.736-5.629c1.298-0.849,2.743-1.146,3.963-0.813      c1.696,0.457,2.777,1.967,3.74,3.475c0.148,0.232,0.08,0.541-0.153,0.69c-0.23,0.147-0.54,0.08-0.69-0.153      c-0.892-1.397-1.805-2.682-3.157-3.047c-0.95-0.254-2.098-0.005-3.155,0.686c-1.58,1.033-2.757,2.821-3.313,5.034      c-0.412,1.644-0.456,3.335-0.381,4.893c0.852-0.852,2.104-1.355,3.424-1.311c1.592,0.057,3.183,0.847,4.479,2.225      c2.38,2.527,3.109,6.39,1.814,9.611c-1.294,3.222-4.493,5.506-7.96,5.684C401.476,220.682,401.467,220.682,401.459,220.682z"
   id="path62" />&#10;			</g>&#10;			<g
   id="g64">&#10;				<path
   style="fill:#25292B;"
   d="M357.8,258.83c-0.199,0-0.399-0.005-0.601-0.015c-3.36-0.164-6.502-1.725-9.396-3.388      c-0.239-0.138-0.322-0.443-0.185-0.683c0.138-0.241,0.445-0.321,0.683-0.185c3.22,1.85,5.974,3.111,8.947,3.257      c3.581,0.168,6.835-1.424,8.907-2.799c2.757-1.829,5.126-4.288,7.216-6.457c0.193-0.2,0.51-0.203,0.707-0.014      c0.199,0.191,0.205,0.509,0.014,0.707c-2.126,2.207-4.536,4.708-7.384,6.598C364.625,257.233,361.431,258.83,357.8,258.83z"
   id="path63" />&#10;			</g>&#10;			<g
   id="g65">&#10;				<path
   style="fill:#25292B;"
   d="M351.286,237.931c-0.255,0-0.473-0.194-0.497-0.454c-0.025-0.274,0.177-0.519,0.452-0.544      c1.896-0.176,3.703-1.101,4.954-2.536c1.251-1.437,1.92-3.353,1.835-5.256c-0.013-0.276,0.201-0.51,0.477-0.521      c0.008-0.001,0.016-0.001,0.022-0.001c0.267,0,0.487,0.209,0.499,0.478c0.098,2.157-0.661,4.329-2.079,5.957      c-1.419,1.628-3.466,2.676-5.616,2.876C351.317,237.93,351.302,237.931,351.286,237.931z"
   id="path64" />&#10;			</g>&#10;			<g
   id="g66">&#10;				<path
   style="fill:#25292B;"
   d="M340.086,232.028c-0.095,0-0.188-0.026-0.271-0.079c-0.143-0.092-0.229-0.249-0.229-0.418      l-0.131-21.821c-0.002-0.276,0.221-0.501,0.497-0.503c0.001,0,0.002,0,0.003,0c0.274,0,0.498,0.222,0.5,0.497l0.126,21.055      l9.036-4.05c0.25-0.116,0.547,0,0.66,0.252s0,0.548-0.252,0.66l-9.735,4.363C340.226,232.013,340.155,232.028,340.086,232.028z"
   id="path65" />&#10;			</g>&#10;		</g>&#10;		<g
   id="g76">&#10;			<g
   id="g69">&#10;				<g
   id="g68">&#10;					<path
   style="fill:#FFBD29;"
   d="M321.307,233.3c-9.902,0-17.958-10.051-17.958-22.405s8.056-22.406,17.958-22.406       c9.901,0,17.957,10.052,17.957,22.406S331.208,233.3,321.307,233.3z M321.307,190.488c-8.799,0-15.958,9.154-15.958,20.406       s7.159,20.405,15.958,20.405s15.957-9.153,15.957-20.405S330.105,190.488,321.307,190.488z"
   id="path67" />&#10;				</g>&#10;			</g>&#10;			<g
   id="g71">&#10;				<g
   id="g70">&#10;					<path
   style="fill:#FFBD29;"
   d="M358.537,225.125c-9.902,0-17.958-10.051-17.958-22.405s8.056-22.405,17.958-22.405       c9.901,0,17.957,10.051,17.957,22.405S368.438,225.125,358.537,225.125z M358.537,182.314c-8.799,0-15.958,9.153-15.958,20.405       s7.159,20.405,15.958,20.405s15.957-9.153,15.957-20.405S367.336,182.314,358.537,182.314z"
   id="path69" />&#10;				</g>&#10;			</g>&#10;			<g
   id="g73">&#10;				<g
   id="g72">&#10;					<path
   style="fill:#FFBD29;"
   d="M374.899,198.094c-0.467,0-0.884-0.328-0.979-0.804c-0.108-0.541,0.242-1.068,0.784-1.177       l14.434-2.896c0.54-0.11,1.067,0.242,1.177,0.784c0.108,0.541-0.242,1.068-0.784,1.177l-14.434,2.896       C375.03,198.089,374.965,198.094,374.899,198.094z"
   id="path71" />&#10;				</g>&#10;			</g>&#10;			<g
   id="g75">&#10;				<g
   id="g74">&#10;					<path
   style="fill:#FFBD29;"
   d="M338.14,209.344c-0.505,0-0.938-0.381-0.993-0.894c-0.059-0.549,0.339-1.042,0.888-1.101       l3.438-0.368c0.564-0.057,1.042,0.34,1.101,0.888c0.059,0.549-0.339,1.042-0.888,1.101l-3.438,0.368       C338.211,209.342,338.175,209.344,338.14,209.344z"
   id="path73" />&#10;				</g>&#10;			</g>&#10;		</g>&#10;		<g
   id="g90">&#10;			<g
   id="g77">&#10;				<path
   style="fill:#FFBD29;"
   d="M489.691,444.825h-274.3v-28.77l72.97-20.44l12.95-84.51c2.64-17.25,14.57-31.65,31.03-37.45      l24.23-8.55l-1.17,4.71c4.03,8.61,12.41,13.27,20.91,13.27c5.9,0,11.85-2.25,16.45-6.97l14.65-15.04l-0.89-3.65l62.92,2.37      c22.47,2.6,39.95,20.74,41.72,43.29l8.58,109.23C521.121,429.845,507.271,444.825,489.691,444.825z"
   id="path76" />&#10;			</g>&#10;			<g
   id="g78">&#10;				<polygon
   style="fill:#F2E9DA;"
   points="355.401,269.815 351.287,444.825 393.723,444.825 407.411,261.075     "
   id="polygon77" />&#10;			</g>&#10;			<g
   id="g79">&#10;				<path
   style="fill:#25292B;"
   d="M373.152,295.903c-0.112,0-0.223-0.038-0.313-0.11c-12.688-10.19-17.863-25.667-17.914-25.822      c-0.086-0.262,0.058-0.544,0.32-0.631c0.262-0.086,0.545,0.057,0.631,0.32c0.049,0.151,5.074,15.161,17.353,25.162      c2.356-1.082,19.708-9.683,33.75-33.997c0.138-0.238,0.444-0.32,0.683-0.183c0.239,0.138,0.321,0.443,0.183,0.683      c-15.203,26.325-34.309,34.461-34.5,34.54C373.282,295.89,373.217,295.903,373.152,295.903z"
   id="path78" />&#10;			</g>&#10;			<g
   id="g80">&#10;				<path
   style="fill:#25292B;"
   d="M333.398,445.325c-0.254,0-0.472-0.193-0.497-0.452l-4.448-46.446      c-0.978-1.55-10.747-17.258-12.229-27.896c-1.527-10.966,11.675-53.591,12.237-55.399c0.081-0.263,0.359-0.412,0.626-0.329      c0.264,0.082,0.411,0.362,0.329,0.626c-0.138,0.441-13.698,44.22-12.202,54.964c1.497,10.746,12.04,27.433,12.146,27.6      c0.042,0.066,0.068,0.143,0.076,0.221l4.46,46.564c0.026,0.275-0.176,0.52-0.45,0.546      C333.431,445.324,333.415,445.325,333.398,445.325z"
   id="path79" />&#10;			</g>&#10;			<g
   id="g81">&#10;				<path
   style="fill:#25292B;"
   d="M403.175,398.761c-0.065,0-0.133-0.013-0.196-0.04c-0.254-0.108-0.372-0.402-0.264-0.656      c0.279-0.652,27.9-65.544,28.038-92.1c0.136-26.483-14.467-47.138-14.614-47.343c-0.161-0.225-0.109-0.537,0.114-0.698      c0.225-0.161,0.536-0.111,0.698,0.114c0.149,0.208,14.939,21.114,14.802,47.933c-0.139,26.756-27.839,91.832-28.118,92.486      C403.554,398.647,403.369,398.761,403.175,398.761z"
   id="path80" />&#10;			</g>&#10;			<g
   id="g82">&#10;				<path
   style="fill:#25292B;"
   d="M349.471,396.815c-0.209,0-0.403-0.131-0.474-0.34c-0.146-0.43-14.578-43.408-15.542-76.872      c-0.967-33.579,14.064-51.638,14.216-51.816c0.178-0.209,0.494-0.235,0.705-0.057c0.21,0.179,0.235,0.494,0.057,0.705      c-0.149,0.176-14.933,17.969-13.978,51.139c0.959,33.313,15.344,76.152,15.489,76.581c0.089,0.262-0.052,0.545-0.313,0.634      C349.578,396.806,349.523,396.815,349.471,396.815z"
   id="path81" />&#10;			</g>&#10;			<g
   id="g83">&#10;				<path
   style="fill:#F2E9DA;"
   d="M396.503,404.933l-50.734-3.197c0,0-9.178-1.412-12.371,4.17c0,0-11.328-3.127-15.985,2.085      c0,0-8.201-3.336-13.483,4.865c-5.282,8.201-14.734,25.853-14.734,25.853h55.876c0,0,4.726,5.56,24.324,5.56      S394.232,438,394.232,438L396.503,404.933z"
   id="path82" />&#10;			</g>&#10;			<g
   id="g84">&#10;				<path
   style="fill:#25292B;"
   d="M396.503,405.432c-0.01,0-0.021,0-0.031-0.001l-45.216-2.849      c-0.275-0.018-0.485-0.255-0.468-0.53s0.217-0.504,0.53-0.468l45.216,2.849c0.275,0.018,0.485,0.255,0.468,0.53      C396.985,405.228,396.766,405.432,396.503,405.432z"
   id="path83" />&#10;			</g>&#10;			<g
   id="g85">&#10;				<path
   style="fill:#25292B;"
   d="M393.725,445.325c-0.013,0-0.025,0-0.038-0.001c-0.275-0.021-0.482-0.261-0.462-0.536      l3.218-43.195c0.019-0.246,0.214-0.442,0.46-0.461l67.412-5.272l-11.595-76.195c-0.042-0.273,0.146-0.528,0.419-0.569      c0.273-0.038,0.528,0.146,0.569,0.419l11.676,76.727c0.021,0.138-0.017,0.277-0.103,0.386c-0.086,0.109-0.214,0.177-0.353,0.188      l-67.521,5.281l-3.186,42.768C394.203,445.125,393.983,445.325,393.725,445.325z"
   id="path84" />&#10;			</g>&#10;			<g
   id="g86">&#10;				<path
   style="fill:#25292B;"
   d="M408.458,443.888c-0.03,0-0.061-0.003-0.092-0.008c-0.271-0.051-0.451-0.312-0.401-0.583      l7.599-41.305c0.051-0.271,0.304-0.444,0.583-0.401c0.271,0.051,0.451,0.312,0.401,0.583l-7.599,41.305      C408.904,443.72,408.694,443.888,408.458,443.888z"
   id="path85" />&#10;			</g>&#10;			<g
   id="g87">&#10;				<path
   style="fill:#25292B;"
   d="M369.446,444.756c-16.766,0.001-23.467-4.69-24.551-5.547H325      c-0.176,0.021-5.508,0.522-8.39-2.085c-1.182-1.068-1.78-2.499-1.78-4.253c0-5.791,4.93-6.941,4.979-6.952l37.081-5.149      c0.254-0.038,0.525,0.151,0.563,0.427c0.038,0.273-0.153,0.525-0.427,0.563l-37.042,5.143c-0.131,0.031-4.155,0.998-4.155,5.969      c0,1.459,0.487,2.64,1.449,3.51c2.551,2.311,7.62,1.835,7.671,1.831l20.125-0.003c0.12,0,0.238,0.044,0.329,0.124      c0.072,0.062,7.5,6.278,28.468,5.318c0.289-0.033,0.51,0.2,0.522,0.476c0.014,0.276-0.2,0.51-0.476,0.522      C372.355,444.721,370.863,444.756,369.446,444.756z"
   id="path86" />&#10;			</g>&#10;			<g
   id="g88">&#10;				<path
   style="fill:#25292B;"
   d="M308.727,439.209c-0.039,0-0.078-0.005-0.118-0.015c-0.269-0.064-0.433-0.335-0.367-0.604      l1.299-5.336c1.311-5.383,4.173-10.192,8.277-13.91l15.245-13.81c0.204-0.185,0.521-0.17,0.706,0.034      c0.186,0.205,0.17,0.521-0.034,0.706l-15.245,13.81c-3.956,3.584-6.715,8.22-7.979,13.406l-1.299,5.336      C309.158,439.055,308.953,439.209,308.727,439.209z"
   id="path87" />&#10;			</g>&#10;			<g
   id="g89">&#10;				<path
   style="fill:#25292B;"
   d="M300.874,439.209c-0.047,0-0.095-0.007-0.142-0.021c-0.265-0.078-0.416-0.356-0.338-0.621      l3.162-10.72c1.01-3.424,2.649-6.576,4.871-9.369l8.596-10.8c0.172-0.216,0.489-0.251,0.703-0.08      c0.216,0.172,0.252,0.487,0.08,0.703l-8.596,10.8c-2.143,2.691-3.722,5.729-4.695,9.029l-3.162,10.72      C301.289,439.068,301.09,439.209,300.874,439.209z"
   id="path88" />&#10;			</g>&#10;		</g>&#10;		<g
   id="g94">&#10;			<g
   id="g91">&#10;				<rect
   x="120.318"
   y="438.709"
   style="fill:#25292B;"
   width="224.294"
   height="7.784"
   id="rect90" />&#10;			</g>&#10;			<g
   id="g92">&#10;				<polygon
   style="fill:#25292B;"
   points="120.318,438.709 274.164,438.709 224.164,315.28 70.318,315.28     "
   id="polygon91" />&#10;			</g>&#10;			<g
   id="g93">&#10;				<path
   style="fill:#F2E9DA;"
   d="M266.013,439.209H121.318c-0.276,0-0.5-0.224-0.5-0.5s0.224-0.5,0.5-0.5h143.944l-49.334-118.428      c-0.105-0.255,0.015-0.548,0.27-0.654c0.252-0.102,0.548,0.014,0.654,0.27l49.622,119.12c0.063,0.154,0.047,0.331-0.046,0.47      S266.18,439.209,266.013,439.209z"
   id="path92" />&#10;			</g>&#10;		</g>&#10;		<g
   id="g95">&#10;			<path
   style="fill:#25292B;"
   d="M570.463,445.325H28.813c-0.276,0-0.5-0.224-0.5-0.5s0.224-0.5,0.5-0.5h541.649     c0.276,0,0.5,0.224,0.5,0.5S570.739,445.325,570.463,445.325z"
   id="path94" />&#10;		</g>&#10;	</g>&#10;	<g
   id="g100">&#10;		<g
   id="g97">&#10;			<path
   style="fill:#25292B;"
   d="M544.47,148.36c-1.27-15.44-14.65-27.47-30.66-27.47c-1.35,0-2.68,0.08-3.97,0.25     c-5.7-15.72-21.01-26.25-38.25-26.25c-20.84,0-38.1,15.05-40.3,35.07c-14.6,3.94-24.77,16.73-24.77,31.22     c0,7.92,3.03,15.55,8.53,21.47c0.1,0.11,0.23,0.16,0.37,0.16h145.83c0.18,0,0.34-0.09,0.43-0.24c2.14-3.51,3.27-7.54,3.27-11.65     C564.95,159.28,556.17,149.66,544.47,148.36z M560.97,181.81H415.64c-5.24-5.72-8.12-13.03-8.12-20.63     c0-14.14,10.02-26.62,24.36-30.34c0.2-0.05,0.35-0.22,0.37-0.43c1.98-19.68,18.9-34.52,39.34-34.52c16.95,0,32,10.43,37.44,25.96     c0.08,0.23,0.31,0.36,0.55,0.33c1.36-0.19,2.78-0.29,4.23-0.29c15.63,0,28.67,11.84,29.69,26.96c0.02,0.24,0.21,0.44,0.45,0.46     c11.4,1.06,20,10.35,20,21.61C563.95,174.76,562.92,178.52,560.97,181.81z"
   id="path96" />&#10;		</g>&#10;		<g
   id="g98">&#10;			<path
   style="fill:#25292B;"
   d="M245.776,143.286c-0.276,0-0.5-0.224-0.5-0.5v-3.769c0-0.276,0.224-0.5,0.5-0.5s0.5,0.224,0.5,0.5     v3.769C246.276,143.062,246.053,143.286,245.776,143.286z M245.776,133.517c-0.276,0-0.5-0.224-0.5-0.5v-6     c0-0.276,0.224-0.5,0.5-0.5s0.5,0.224,0.5,0.5v6C246.276,133.294,246.053,133.517,245.776,133.517z M403.568,122.367     c-1.661,0-3.253-0.26-4.772-0.771c-0.262-0.088-0.402-0.371-0.314-0.633c0.089-0.261,0.373-0.4,0.633-0.314     c1.417,0.477,2.901,0.719,4.412,0.719c0.465,0,0.885-0.019,1.3-0.057c0.253-0.019,0.519,0.178,0.543,0.453     c0.025,0.274-0.178,0.518-0.453,0.543C404.472,122.346,404.022,122.367,403.568,122.367z M346.193,122.331     c-1.441,0-2.866-0.206-4.235-0.613c-0.265-0.079-0.415-0.357-0.337-0.622c0.078-0.264,0.354-0.412,0.622-0.337     c1.839,0.548,3.812,0.706,5.729,0.459c0.269-0.038,0.524,0.158,0.56,0.433s-0.159,0.524-0.433,0.56     C347.47,122.29,346.828,122.331,346.193,122.331z M288.818,122.331c-1.268,0-2.484-0.149-3.658-0.443     c-0.269-0.067-0.431-0.339-0.364-0.606c0.067-0.268,0.34-0.431,0.606-0.364c1.885,0.472,3.918,0.53,5.747,0.219     c0.26-0.044,0.53,0.138,0.576,0.41c0.046,0.271-0.138,0.53-0.41,0.576C290.495,122.261,289.655,122.331,288.818,122.331z      M245.776,121.517c-0.276,0-0.5-0.224-0.5-0.5v-6c0-0.276,0.224-0.5,0.5-0.5s0.5,0.224,0.5,0.5v6     C246.276,121.294,246.053,121.517,245.776,121.517z M410.56,120.55c-0.175,0-0.345-0.092-0.437-0.256     c-0.135-0.24-0.049-0.545,0.192-0.681c1.699-0.952,3.155-2.227,4.325-3.786c0.167-0.221,0.481-0.265,0.7-0.101     c0.221,0.166,0.266,0.479,0.101,0.7c-1.255,1.673-2.815,3.038-4.638,4.06C410.727,120.529,410.643,120.55,410.56,120.55z      M353.653,120.239c-0.168,0-0.332-0.085-0.427-0.239c-0.144-0.236-0.069-0.544,0.166-0.688c1.64-1.001,3.085-2.365,4.18-3.946     c0.158-0.228,0.469-0.282,0.696-0.126c0.227,0.157,0.283,0.469,0.126,0.696c-1.174,1.693-2.723,3.156-4.48,4.229     C353.833,120.216,353.742,120.239,353.653,120.239z M296.766,119.928c-0.161,0-0.319-0.078-0.416-0.223     c-0.153-0.229-0.091-0.54,0.139-0.693c1.598-1.066,2.987-2.488,4.018-4.11c0.148-0.233,0.458-0.301,0.689-0.154     c0.233,0.147,0.303,0.457,0.154,0.689c-1.104,1.739-2.593,3.264-4.307,4.407C296.958,119.901,296.861,119.928,296.766,119.928z      M279.935,119.279c-0.108,0-0.217-0.035-0.309-0.106c-1.646-1.292-2.978-2.882-3.956-4.725c-0.13-0.243-0.037-0.546,0.207-0.676     c0.241-0.13,0.546-0.037,0.676,0.207c0.9,1.694,2.177,3.218,3.69,4.406c0.218,0.171,0.255,0.485,0.085,0.702     C280.229,119.214,280.082,119.279,279.935,119.279z M336.872,118.886c-0.115,0-0.231-0.039-0.325-0.12     c-1.589-1.361-2.851-3.007-3.749-4.89c-0.119-0.25-0.014-0.548,0.236-0.667c0.247-0.119,0.546-0.015,0.666,0.236     c0.838,1.756,2.015,3.291,3.497,4.561c0.21,0.18,0.234,0.495,0.055,0.705C337.153,118.827,337.013,118.886,336.872,118.886z      M393.83,118.59c-0.121,0-0.242-0.044-0.339-0.132c-1.541-1.417-2.743-3.104-3.575-5.017c-0.109-0.253,0.007-0.548,0.26-0.658     c0.252-0.106,0.548,0.006,0.658,0.26c0.774,1.783,1.896,3.357,3.335,4.679c0.203,0.187,0.216,0.503,0.029,0.707     C394.1,118.535,393.965,118.59,393.83,118.59z M417.545,111.225c-0.036,0-0.073-0.004-0.11-0.013     c-0.27-0.061-0.438-0.329-0.377-0.598c0.228-1.005,0.344-2.042,0.344-3.081v-2.782c0-0.276,0.224-0.5,0.5-0.5s0.5,0.224,0.5,0.5     v2.782c0,1.114-0.124,2.225-0.369,3.302C417.979,111.068,417.773,111.225,417.545,111.225z M360.281,110.656     c-0.031,0-0.062-0.003-0.093-0.009c-0.271-0.051-0.45-0.312-0.399-0.583c0.157-0.843,0.237-1.706,0.237-2.566v-3.324     c0-0.276,0.224-0.5,0.5-0.5s0.5,0.224,0.5,0.5v3.324c0,0.922-0.086,1.847-0.255,2.75     C360.727,110.488,360.517,110.656,360.281,110.656z M303.002,110.086c-0.024,0-0.048-0.002-0.072-0.005     c-0.273-0.04-0.463-0.293-0.424-0.566c0.097-0.666,0.146-1.345,0.146-2.017v-3.903c0-0.276,0.224-0.5,0.5-0.5s0.5,0.224,0.5,0.5     v3.903c0,0.72-0.053,1.446-0.155,2.159C303.46,109.906,303.246,110.086,303.002,110.086z M245.776,109.517     c-0.276,0-0.5-0.224-0.5-0.5v-6c0-0.276,0.224-0.5,0.5-0.5s0.5,0.224,0.5,0.5v6C246.276,109.294,246.053,109.517,245.776,109.517     z M274.477,108.989c-0.26,0-0.479-0.202-0.498-0.466c-0.023-0.339-0.035-0.68-0.035-1.025v-5.008c0-0.276,0.224-0.5,0.5-0.5     s0.5,0.224,0.5,0.5v5.008c0,0.322,0.012,0.641,0.033,0.957c0.019,0.275-0.189,0.514-0.465,0.533     C274.5,108.989,274.488,108.989,274.477,108.989z M331.864,108.371c-0.271,0-0.493-0.216-0.5-0.488l-0.005-0.385v-5.627     c0-0.276,0.224-0.5,0.5-0.5s0.5,0.224,0.5,0.5l0.005,5.988c0.007,0.276-0.212,0.505-0.488,0.512     C331.872,108.371,331.868,108.371,331.864,108.371z M389.192,107.905c-0.276,0-0.5-0.224-0.5-0.5v-6c0-0.276,0.224-0.5,0.5-0.5     s0.5,0.224,0.5,0.5v6C389.692,107.681,389.469,107.905,389.192,107.905z M417.901,99.252c-0.276,0-0.5-0.224-0.5-0.5v-6     c0-0.276,0.224-0.5,0.5-0.5s0.5,0.224,0.5,0.5v6C418.401,99.028,418.178,99.252,417.901,99.252z M360.526,98.674     c-0.276,0-0.5-0.224-0.5-0.5v-6c0-0.276,0.224-0.5,0.5-0.5s0.5,0.224,0.5,0.5v6C361.026,98.45,360.803,98.674,360.526,98.674z      M303.151,98.095c-0.276,0-0.5-0.224-0.5-0.5v-6c0-0.276,0.224-0.5,0.5-0.5s0.5,0.224,0.5,0.5v6     C303.651,97.871,303.428,98.095,303.151,98.095z M245.776,97.517c-0.276,0-0.5-0.224-0.5-0.5v-6c0-0.276,0.224-0.5,0.5-0.5     s0.5,0.224,0.5,0.5v6C246.276,97.294,246.053,97.517,245.776,97.517z M274.443,96.99c-0.276,0-0.5-0.224-0.5-0.5v-6     c0-0.276,0.224-0.5,0.5-0.5s0.5,0.224,0.5,0.5v6C274.943,96.766,274.72,96.99,274.443,96.99z M331.859,96.371     c-0.276,0-0.5-0.224-0.5-0.5v-6c0-0.276,0.224-0.5,0.5-0.5s0.5,0.224,0.5,0.5v6C332.359,96.147,332.136,96.371,331.859,96.371z      M389.192,95.905c-0.276,0-0.5-0.224-0.5-0.5v-6c0-0.276,0.224-0.5,0.5-0.5s0.5,0.224,0.5,0.5v6     C389.692,95.681,389.469,95.905,389.192,95.905z M446.609,95.286c-0.276,0-0.5-0.224-0.5-0.5v-6c0-0.276,0.224-0.5,0.5-0.5     s0.5,0.224,0.5,0.5v6C447.109,95.062,446.886,95.286,446.609,95.286z M417.901,87.252c-0.276,0-0.5-0.224-0.5-0.5v-6     c0-0.276,0.224-0.5,0.5-0.5s0.5,0.224,0.5,0.5v6C418.401,87.028,418.178,87.252,417.901,87.252z M360.526,86.674     c-0.276,0-0.5-0.224-0.5-0.5v-6c0-0.276,0.224-0.5,0.5-0.5s0.5,0.224,0.5,0.5v6C361.026,86.45,360.803,86.674,360.526,86.674z      M303.151,86.095c-0.276,0-0.5-0.224-0.5-0.5v-6c0-0.276,0.224-0.5,0.5-0.5s0.5,0.224,0.5,0.5v6     C303.651,85.871,303.428,86.095,303.151,86.095z M245.776,85.517c-0.276,0-0.5-0.224-0.5-0.5v-6c0-0.276,0.224-0.5,0.5-0.5     s0.5,0.224,0.5,0.5v6C246.276,85.294,246.053,85.517,245.776,85.517z M274.443,84.99c-0.276,0-0.5-0.224-0.5-0.5v-6     c0-0.276,0.224-0.5,0.5-0.5s0.5,0.224,0.5,0.5v6C274.943,84.766,274.72,84.99,274.443,84.99z M331.859,84.371     c-0.276,0-0.5-0.224-0.5-0.5v-6c0-0.276,0.224-0.5,0.5-0.5s0.5,0.224,0.5,0.5v6C332.359,84.147,332.136,84.371,331.859,84.371z      M389.192,83.905c-0.276,0-0.5-0.224-0.5-0.5v-6c0-0.276,0.224-0.5,0.5-0.5s0.5,0.224,0.5,0.5v6     C389.692,83.681,389.469,83.905,389.192,83.905z M446.609,83.286c-0.276,0-0.5-0.224-0.5-0.5v-6c0-0.276,0.224-0.5,0.5-0.5     s0.5,0.224,0.5,0.5v6C447.109,83.062,446.886,83.286,446.609,83.286z M417.901,75.252c-0.276,0-0.5-0.224-0.5-0.5v-0.438     c0-1.94,0.369-3.828,1.098-5.611c0.104-0.256,0.396-0.378,0.652-0.273c0.255,0.104,0.378,0.396,0.273,0.652     c-0.679,1.661-1.023,3.422-1.023,5.232v0.438C418.401,75.028,418.178,75.252,417.901,75.252z M360.527,74.674     c-0.002,0-0.003,0-0.005,0c-0.276-0.003-0.498-0.229-0.495-0.505c0.02-2.096,0.469-4.12,1.335-6.016     c0.115-0.252,0.414-0.359,0.663-0.247c0.251,0.115,0.361,0.412,0.247,0.663c-0.808,1.767-1.227,3.654-1.245,5.609     C361.024,74.453,360.802,74.674,360.527,74.674z M303.167,74.095c-0.008,0-0.016,0-0.023-0.001     c-0.275-0.013-0.489-0.246-0.476-0.522c0.098-2.094,0.623-4.1,1.563-5.962c0.124-0.246,0.426-0.345,0.672-0.221     s0.345,0.425,0.221,0.672c-0.875,1.735-1.365,3.605-1.457,5.558C303.654,73.886,303.433,74.095,303.167,74.095z M245.832,73.518     c-0.015,0-0.029-0.001-0.044-0.002c-0.275-0.023-0.479-0.266-0.455-0.541c0.181-2.084,0.787-4.066,1.803-5.894     c0.134-0.242,0.439-0.326,0.68-0.194c0.241,0.135,0.328,0.439,0.194,0.681c-0.947,1.702-1.513,3.551-1.681,5.493     C246.307,73.322,246.088,73.518,245.832,73.518z M274.332,72.995c-0.248,0-0.464-0.186-0.495-0.438     c-0.24-1.934-0.873-3.76-1.883-5.429c-0.143-0.236-0.067-0.544,0.169-0.687c0.236-0.141,0.544-0.067,0.687,0.169     c1.083,1.79,1.763,3.749,2.02,5.823c0.034,0.274-0.16,0.523-0.435,0.558C274.374,72.994,274.352,72.995,274.332,72.995z      M331.66,72.384c-0.239,0-0.451-0.173-0.492-0.417c-0.323-1.92-1.035-3.718-2.116-5.342c-0.153-0.23-0.091-0.541,0.139-0.693     c0.227-0.152,0.54-0.093,0.693,0.139c1.16,1.743,1.924,3.671,2.271,5.73c0.046,0.272-0.138,0.53-0.41,0.576     C331.716,72.382,331.688,72.384,331.66,72.384z M388.9,71.927c-0.232,0-0.44-0.163-0.489-0.399     c-0.39-1.907-1.164-3.678-2.303-5.266c-0.161-0.224-0.109-0.536,0.115-0.697c0.222-0.162,0.535-0.111,0.697,0.115     c1.222,1.702,2.053,3.602,2.471,5.646c0.055,0.271-0.119,0.535-0.39,0.591C388.968,71.924,388.934,71.927,388.9,71.927z      M446.182,71.323c-0.225,0-0.428-0.151-0.485-0.379c-0.473-1.887-1.323-3.623-2.529-5.16c-0.17-0.217-0.133-0.531,0.085-0.702     c0.216-0.169,0.53-0.134,0.702,0.085c1.293,1.647,2.206,3.51,2.713,5.535c0.066,0.268-0.096,0.539-0.364,0.606     C446.263,71.318,446.222,71.323,446.182,71.323z M422.312,64.469c-0.132,0-0.263-0.052-0.361-0.154     c-0.19-0.199-0.184-0.516,0.016-0.707c1.512-1.45,3.273-2.544,5.234-3.252c0.262-0.089,0.546,0.041,0.641,0.301     c0.094,0.26-0.041,0.547-0.301,0.641c-1.829,0.659-3.472,1.68-4.883,3.033C422.561,64.423,422.437,64.469,422.312,64.469z      M365.363,64.077c-0.138,0-0.275-0.057-0.374-0.168c-0.184-0.207-0.164-0.523,0.042-0.706c1.568-1.39,3.372-2.412,5.362-3.039     c0.263-0.08,0.544,0.063,0.627,0.326c0.083,0.264-0.063,0.544-0.326,0.627c-1.855,0.585-3.537,1.538-4.999,2.834     C365.6,64.036,365.481,64.077,365.363,64.077z M308.401,63.688c-0.145,0-0.288-0.063-0.387-0.183     c-0.175-0.214-0.144-0.529,0.069-0.704c1.621-1.329,3.462-2.281,5.474-2.832c0.271-0.071,0.542,0.085,0.614,0.351     c0.072,0.267-0.084,0.541-0.351,0.614c-1.875,0.513-3.592,1.401-5.103,2.641C308.625,63.651,308.514,63.688,308.401,63.688z      M251.48,63.332c-0.151,0-0.301-0.068-0.399-0.198c-0.166-0.221-0.122-0.534,0.098-0.701c1.672-1.262,3.55-2.14,5.584-2.609     c0.272-0.063,0.537,0.106,0.6,0.375c0.062,0.269-0.105,0.537-0.375,0.6c-1.895,0.438-3.647,1.256-5.205,2.434     C251.691,63.299,251.586,63.332,251.48,63.332z M268.312,63.022c-0.1,0-0.199-0.029-0.286-0.09     c-1.601-1.119-3.381-1.872-5.293-2.239c-0.271-0.053-0.448-0.314-0.396-0.586s0.309-0.448,0.586-0.396     c2.05,0.394,3.96,1.202,5.676,2.401c0.227,0.158,0.282,0.471,0.124,0.696C268.625,62.948,268.47,63.022,268.312,63.022z      M325.215,62.678c-0.093,0-0.186-0.025-0.269-0.078c-1.646-1.048-3.457-1.724-5.383-2.007c-0.272-0.041-0.462-0.295-0.422-0.568     c0.041-0.272,0.294-0.454,0.568-0.422c2.065,0.305,4.008,1.029,5.773,2.153c0.233,0.148,0.302,0.458,0.153,0.69     C325.541,62.596,325.38,62.678,325.215,62.678z M382.12,62.452c-0.087,0-0.174-0.022-0.254-0.069     c-1.68-0.988-3.514-1.599-5.45-1.815c-0.274-0.031-0.472-0.278-0.441-0.553c0.03-0.275,0.286-0.469,0.553-0.441     c2.077,0.232,4.045,0.888,5.847,1.948c0.237,0.14,0.317,0.446,0.177,0.685C382.458,62.364,382.291,62.452,382.12,62.452z      M438.997,62.15c-0.08,0-0.16-0.019-0.234-0.059c-1.719-0.913-3.577-1.444-5.525-1.578c-0.275-0.02-0.483-0.258-0.465-0.533     c0.02-0.275,0.251-0.494,0.533-0.465c2.09,0.144,4.083,0.714,5.926,1.693c0.244,0.13,0.337,0.433,0.207,0.676     C439.349,62.053,439.176,62.15,438.997,62.15z"
   id="path97" />&#10;		</g>&#10;		<g
   id="g99">&#10;			<path
   style="fill:#25292B;"
   d="M475.546,239.355c-0.276,0-0.5-0.224-0.5-0.5v-6c0-0.276,0.224-0.5,0.5-0.5s0.5,0.224,0.5,0.5v6     C476.046,239.132,475.822,239.355,475.546,239.355z M475.546,227.355c-0.276,0-0.5-0.224-0.5-0.5v-6c0-0.276,0.224-0.5,0.5-0.5     s0.5,0.224,0.5,0.5v6C476.046,227.132,475.822,227.355,475.546,227.355z M475.546,215.355c-0.276,0-0.5-0.224-0.5-0.5v-6     c0-0.276,0.224-0.5,0.5-0.5s0.5,0.224,0.5,0.5v6C476.046,215.132,475.822,215.355,475.546,215.355z M475.546,203.355     c-0.276,0-0.5-0.224-0.5-0.5v-6c0-0.276,0.224-0.5,0.5-0.5s0.5,0.224,0.5,0.5v6C476.046,203.132,475.822,203.355,475.546,203.355     z M475.546,191.355c-0.276,0-0.5-0.224-0.5-0.5v-6c0-0.276,0.224-0.5,0.5-0.5s0.5,0.224,0.5,0.5v6     C476.046,191.132,475.822,191.355,475.546,191.355z"
   id="path98" />&#10;		</g>&#10;	</g>&#10;	<g
   id="g242">&#10;		<g
   id="g141">&#10;			<g
   id="g101">&#10;				<rect
   x="29.719"
   y="227.168"
   style="fill:#F2E9DA;"
   width="125.097"
   height="77.37"
   id="rect100" />&#10;			</g>&#10;			<g
   id="g103">&#10;				<g
   id="g102">&#10;					<rect
   x="33.888"
   y="229.961"
   style="fill:#FFBD29;"
   width="116.757"
   height="16.263"
   id="rect101" />&#10;				</g>&#10;			</g>&#10;			<g
   id="g116">&#10;				<g
   id="g107">&#10;					<g
   id="g106">&#10;						<g
   id="g105">&#10;							<g
   id="g104">&#10;								<path
   style="fill:#F2E9DA;"
   d="M129.353,243.616c-0.153,0-0.307-0.05-0.436-0.153l-6.078-4.855          c-0.166-0.133-0.263-0.334-0.263-0.547c0-0.213,0.097-0.414,0.263-0.547l6-4.793c0.302-0.241,0.742-0.192,0.983,0.11          c0.241,0.302,0.192,0.742-0.11,0.983l-5.315,4.246l5.393,4.308c0.302,0.241,0.351,0.681,0.11,0.983          C129.762,243.526,129.559,243.616,129.353,243.616z"
   id="path103" />&#10;							</g>&#10;						</g>&#10;					</g>&#10;				</g>&#10;				<g
   id="g111">&#10;					<g
   id="g110">&#10;						<g
   id="g109">&#10;							<g
   id="g108">&#10;								<path
   style="fill:#F2E9DA;"
   d="M138.661,243.616c-0.205,0-0.409-0.09-0.547-0.263c-0.241-0.302-0.192-0.742,0.11-0.983          l5.393-4.308l-5.315-4.246c-0.302-0.241-0.351-0.681-0.11-0.983c0.241-0.302,0.682-0.351,0.983-0.11l6,4.793          c0.166,0.133,0.263,0.334,0.263,0.547c0,0.213-0.097,0.414-0.263,0.547l-6.078,4.855          C138.968,243.566,138.814,243.616,138.661,243.616z"
   id="path107" />&#10;							</g>&#10;						</g>&#10;					</g>&#10;				</g>&#10;				<g
   id="g115">&#10;					<g
   id="g114">&#10;						<g
   id="g113">&#10;							<g
   id="g112">&#10;								<path
   style="fill:#F2E9DA;"
   d="M132.642,244.899c-0.098,0.013-0.199,0.006-0.3-0.025c-0.369-0.114-0.577-0.505-0.463-0.874          l3.761-12.227c0.113-0.369,0.505-0.577,0.874-0.463c0.369,0.114,0.577,0.505,0.463,0.874l-3.761,12.227          C133.134,244.681,132.903,244.864,132.642,244.899z"
   id="path111" />&#10;							</g>&#10;						</g>&#10;					</g>&#10;				</g>&#10;			</g>&#10;			<g
   id="g118">&#10;				<g
   id="g117">&#10;					<rect
   x="33.888"
   y="257.482"
   style="fill:#FFA727;"
   width="62.766"
   height="5.143"
   id="rect116" />&#10;				</g>&#10;			</g>&#10;			<g
   id="g120">&#10;				<g
   id="g119">&#10;					<rect
   x="99.504"
   y="257.482"
   style="fill:#FFBD29;"
   width="30.549"
   height="5.143"
   id="rect118" />&#10;				</g>&#10;			</g>&#10;			<g
   id="g122">&#10;				<g
   id="g121">&#10;					<rect
   x="133.191"
   y="257.482"
   style="fill:#25292B;"
   width="17.454"
   height="5.143"
   id="rect120" />&#10;				</g>&#10;			</g>&#10;			<g
   id="g124">&#10;				<g
   id="g123">&#10;					<polyline
   style="fill:#FFA727;"
   points="150.804,274.302 108.037,274.302 108.037,269.159 150.804,269.159      "
   id="polyline122" />&#10;				</g>&#10;			</g>&#10;			<g
   id="g126">&#10;				<g
   id="g125">&#10;					&#10;						<rect
   x="74.639"
   y="269.159"
   transform="matrix(-1 -1.224647e-16 1.224647e-16 -1 179.8267 543.4602)"
   style="fill:#FFBD29;"
   width="30.549"
   height="5.143"
   id="rect124" />&#10;				</g>&#10;			</g>&#10;			<g
   id="g128">&#10;				<g
   id="g127">&#10;					<polyline
   style="fill:#25292B;"
   points="34.047,269.159 71.501,269.159 71.501,274.302 34.047,274.302      "
   id="polyline126" />&#10;				</g>&#10;			</g>&#10;			<g
   id="g130">&#10;				<g
   id="g129">&#10;					<rect
   x="34.047"
   y="281.806"
   style="fill:#FFBD29;"
   width="22.766"
   height="5.143"
   id="rect128" />&#10;				</g>&#10;			</g>&#10;			<g
   id="g132">&#10;				<g
   id="g131">&#10;					<rect
   x="59.662"
   y="281.806"
   style="fill:#FFA727;"
   width="63.549"
   height="5.143"
   id="rect130" />&#10;				</g>&#10;			</g>&#10;			<g
   id="g134">&#10;				<g
   id="g133">&#10;					<rect
   x="126.349"
   y="281.806"
   style="fill:#25292B;"
   width="24.454"
   height="5.143"
   id="rect132" />&#10;				</g>&#10;			</g>&#10;			<g
   id="g136">&#10;				<g
   id="g135">&#10;					<polyline
   style="fill:#FFA727;"
   points="150.962,298.626 132.196,298.626 132.196,293.483 150.962,293.483      "
   id="polyline134" />&#10;				</g>&#10;			</g>&#10;			<g
   id="g138">&#10;				<g
   id="g137">&#10;					&#10;						<rect
   x="74.797"
   y="293.483"
   transform="matrix(-1 -1.224647e-16 1.224647e-16 -1 204.1435 592.1083)"
   style="fill:#FFBD29;"
   width="54.549"
   height="5.143"
   id="rect136" />&#10;				</g>&#10;			</g>&#10;			<g
   id="g140">&#10;				<g
   id="g139">&#10;					<polyline
   style="fill:#25292B;"
   points="34.205,293.483 71.659,293.483 71.659,298.626 34.205,298.626      "
   id="polyline138" />&#10;				</g>&#10;			</g>&#10;		</g>&#10;		<g
   id="g151"
   transform="matrix(0.89005225,0,0,0.89005225,11.903287,25.143456)">&#10;			&#10;			<g
   id="g150">&#10;				&#10;				&#10;				&#10;			</g>&#10;		<text
   xml:space="preserve"
   style="font-size:142.582px;line-height:0;font-family:Uroob;-inkscape-font-specification:Uroob;text-align:center;letter-spacing:3.71308px;text-anchor:middle;fill:#000000;stroke:none;stroke-width:2.97046"
   x="86.939758"
   y="208.82411"
   id="text242"><tspan
     sodipodi:role="line"
     id="tspan242"
     x="88.796303"
     y="208.82411"
     style="fill:#000000;stroke:none;stroke-width:2.97046">JS</tspan></text></g>&#10;		<g
   id="g224">&#10;			<g
   id="g152">&#10;				<rect
   x="162.462"
   y="149.961"
   style="fill:#F2E9DA;"
   width="125.097"
   height="154.577"
   id="rect151" />&#10;			</g>&#10;			<g
   id="g154">&#10;				<g
   id="g153">&#10;					<rect
   x="166.632"
   y="152.755"
   style="fill:#FFBD29;"
   width="116.757"
   height="16.263"
   id="rect152" />&#10;				</g>&#10;			</g>&#10;			<g
   id="g167">&#10;				<g
   id="g158">&#10;					<g
   id="g157">&#10;						<g
   id="g156">&#10;							<g
   id="g155">&#10;								<path
   style="fill:#F2E9DA;"
   d="M262.097,166.409c-0.153,0-0.307-0.05-0.436-0.153l-6.078-4.855          c-0.166-0.133-0.263-0.334-0.263-0.547c0-0.213,0.097-0.414,0.263-0.547l6-4.793c0.302-0.241,0.742-0.192,0.983,0.11          c0.241,0.302,0.192,0.742-0.11,0.983l-5.315,4.246l5.393,4.308c0.302,0.241,0.351,0.681,0.11,0.983          C262.506,166.319,262.302,166.409,262.097,166.409z"
   id="path154" />&#10;							</g>&#10;						</g>&#10;					</g>&#10;				</g>&#10;				<g
   id="g162">&#10;					<g
   id="g161">&#10;						<g
   id="g160">&#10;							<g
   id="g159">&#10;								<path
   style="fill:#F2E9DA;"
   d="M271.404,166.409c-0.206,0-0.409-0.09-0.547-0.263c-0.241-0.302-0.192-0.742,0.11-0.983          l5.393-4.308l-5.315-4.246c-0.302-0.241-0.351-0.681-0.11-0.983c0.241-0.302,0.682-0.351,0.983-0.11l6,4.793          c0.166,0.133,0.263,0.334,0.263,0.547c0,0.213-0.097,0.414-0.263,0.547l-6.078,4.855          C271.712,166.359,271.558,166.409,271.404,166.409z"
   id="path158" />&#10;							</g>&#10;						</g>&#10;					</g>&#10;				</g>&#10;				<g
   id="g166">&#10;					<g
   id="g165">&#10;						<g
   id="g164">&#10;							<g
   id="g163">&#10;								<path
   style="fill:#F2E9DA;"
   d="M265.386,167.693c-0.098,0.013-0.199,0.006-0.3-0.025c-0.369-0.114-0.577-0.505-0.463-0.874          l3.761-12.227c0.113-0.369,0.505-0.577,0.874-0.463c0.369,0.114,0.577,0.505,0.463,0.874l-3.761,12.227          C265.878,167.474,265.647,167.657,265.386,167.693z"
   id="path162" />&#10;							</g>&#10;						</g>&#10;					</g>&#10;				</g>&#10;			</g>&#10;			<g
   id="g169">&#10;				<g
   id="g168">&#10;					&#10;						<rect
   x="187.383"
   y="266.606"
   transform="matrix(-1 -1.224647e-16 1.224647e-16 -1 424.0234 538.3553)"
   style="fill:#FFBD29;"
   width="49.258"
   height="5.143"
   id="rect167" />&#10;				</g>&#10;			</g>&#10;			<g
   id="g171">&#10;				<g
   id="g170">&#10;					&#10;						<rect
   x="166.791"
   y="266.606"
   transform="matrix(-1 -1.224647e-16 1.224647e-16 -1 351.0356 538.3553)"
   style="fill:#25292B;"
   width="17.454"
   height="5.143"
   id="rect169" />&#10;				</g>&#10;			</g>&#10;			<g
   id="g173">&#10;				<g
   id="g172">&#10;					<polyline
   style="fill:#25292B;"
   points="166.632,254.93 209.399,254.93 209.399,260.073 166.632,260.073      "
   id="polyline171" />&#10;				</g>&#10;			</g>&#10;			<g
   id="g175">&#10;				<g
   id="g174">&#10;					<rect
   x="212.248"
   y="254.93"
   style="fill:#FFBD29;"
   width="30.549"
   height="5.143"
   id="rect173" />&#10;				</g>&#10;			</g>&#10;			<g
   id="g177">&#10;				<g
   id="g176">&#10;					<polyline
   style="fill:#FFA727;"
   points="283.389,260.073 245.935,260.073 245.935,254.93 283.389,254.93      "
   id="polyline175" />&#10;				</g>&#10;			</g>&#10;			<g
   id="g179">&#10;				<g
   id="g178">&#10;					&#10;						<rect
   x="260.623"
   y="242.282"
   transform="matrix(-1 -1.224647e-16 1.224647e-16 -1 544.0117 489.7073)"
   style="fill:#FFBD29;"
   width="22.766"
   height="5.143"
   id="rect177" />&#10;				</g>&#10;			</g>&#10;			<g
   id="g181">&#10;				<g
   id="g180">&#10;					&#10;						<rect
   x="194.224"
   y="242.282"
   transform="matrix(-1 -1.224647e-16 1.224647e-16 -1 451.9976 489.7073)"
   style="fill:#FFA727;"
   width="63.549"
   height="5.143"
   id="rect179" />&#10;				</g>&#10;			</g>&#10;			<g
   id="g183">&#10;				<g
   id="g182">&#10;					&#10;						<rect
   x="166.632"
   y="242.282"
   transform="matrix(-1 -1.224647e-16 1.224647e-16 -1 357.7188 489.7073)"
   style="fill:#25292B;"
   width="24.454"
   height="5.143"
   id="rect181" />&#10;				</g>&#10;			</g>&#10;			<g
   id="g185">&#10;				<g
   id="g184">&#10;					<rect
   x="227.523"
   y="230.606"
   style="fill:#FFBD29;"
   width="15.116"
   height="5.143"
   id="rect183" />&#10;				</g>&#10;			</g>&#10;			<g
   id="g187">&#10;				<g
   id="g186">&#10;					<polyline
   style="fill:#25292B;"
   points="283.231,235.749 245.776,235.749 245.776,230.606 283.231,230.606      "
   id="polyline185" />&#10;				</g>&#10;			</g>&#10;			<g
   id="g189">&#10;				<g
   id="g188">&#10;					&#10;						<rect
   x="227.523"
   y="216.276"
   transform="matrix(-1 -1.224647e-16 1.224647e-16 -1 511.2285 437.6954)"
   style="fill:#FFA727;"
   width="56.183"
   height="5.143"
   id="rect187" />&#10;				</g>&#10;			</g>&#10;			<g
   id="g191">&#10;				<g
   id="g190">&#10;					<rect
   x="227.523"
   y="204.6"
   style="fill:#25292B;"
   width="15.433"
   height="5.143"
   id="rect189" />&#10;				</g>&#10;			</g>&#10;			<g
   id="g193">&#10;				<g
   id="g192">&#10;					<polyline
   style="fill:#FFBD29;"
   points="283.612,209.743 246.158,209.743 246.093,204.6 283.547,204.6      "
   id="polyline191" />&#10;				</g>&#10;			</g>&#10;			<g
   id="g195">&#10;				<g
   id="g194">&#10;					&#10;						<rect
   x="260.781"
   y="191.952"
   transform="matrix(-1 -1.224647e-16 1.224647e-16 -1 544.3286 389.0474)"
   style="fill:#FFBD29;"
   width="22.766"
   height="5.143"
   id="rect193" />&#10;				</g>&#10;			</g>&#10;			<g
   id="g197">&#10;				<g
   id="g196">&#10;					&#10;						<rect
   x="227.523"
   y="191.952"
   transform="matrix(-1 -1.224647e-16 1.224647e-16 -1 485.4544 389.0474)"
   style="fill:#FFA727;"
   width="30.409"
   height="5.143"
   id="rect195" />&#10;				</g>&#10;			</g>&#10;			<g
   id="g199">&#10;				<g
   id="g198">&#10;					<rect
   x="227.523"
   y="180.276"
   style="fill:#FFBD29;"
   width="15.275"
   height="5.143"
   id="rect197" />&#10;				</g>&#10;			</g>&#10;			<g
   id="g201">&#10;				<g
   id="g200">&#10;					<polyline
   style="fill:#25292B;"
   points="283.389,185.419 245.935,185.419 245.935,180.276 283.389,180.276      "
   id="polyline199" />&#10;				</g>&#10;			</g>&#10;			<g
   id="g203">&#10;				<g
   id="g202">&#10;					<polyline
   style="fill:#FFA727;"
   points="166.344,291.454 209.111,291.454 209.111,296.597 166.344,296.597      "
   id="polyline201" />&#10;				</g>&#10;			</g>&#10;			<g
   id="g205">&#10;				<g
   id="g204">&#10;					<rect
   x="211.96"
   y="291.454"
   style="fill:#25292B;"
   width="24.681"
   height="5.143"
   id="rect203" />&#10;				</g>&#10;			</g>&#10;			<g
   id="g207">&#10;				<g
   id="g206">&#10;					&#10;						<rect
   x="166.344"
   y="278.806"
   transform="matrix(-1 -1.224647e-16 1.224647e-16 -1 357.1426 562.7557)"
   style="fill:#25292B;"
   width="24.454"
   height="5.143"
   id="rect205" />&#10;				</g>&#10;			</g>&#10;			<path
   style="fill:#FFA727;"
   d="M291.63,272.86v42.33c0,1.34-1.1,2.44-2.44,2.44h-44.03c-1.35,0-2.45-1.1-2.45-2.44v-42.33     c0-1.34,1.1-2.44,2.45-2.44h44.03C290.53,270.42,291.63,271.52,291.63,272.86z"
   id="path207" />&#10;			<g
   id="g209">&#10;				<g
   id="g208">&#10;					<polyline
   style="fill:#FFA727;"
   points="236.641,283.949 193.868,283.949 193.868,278.806 236.641,278.806      "
   id="polyline207" />&#10;				</g>&#10;			</g>&#10;			<g
   id="g210">&#10;				<path
   style="fill:#F2E9DA;"
   d="M287.736,312.164h-38.808c-1.073,0-1.946-0.873-1.946-1.945v-34.472      c0-1.072,0.873-1.945,1.946-1.945h38.808c1.073,0,1.946,0.873,1.946,1.945v34.472      C289.682,311.291,288.809,312.164,287.736,312.164z M248.928,274.802c-0.521,0-0.946,0.424-0.946,0.945v34.472      c0,0.521,0.424,0.945,0.946,0.945h38.808c0.521,0,0.946-0.424,0.946-0.945v-34.472c0-0.521-0.424-0.945-0.946-0.945H248.928z"
   id="path209" />&#10;			</g>&#10;			<g
   id="g223">&#10;				<g
   id="g214">&#10;					<g
   id="g213">&#10;						<g
   id="g212">&#10;							<g
   id="g211">&#10;								<path
   style="fill:#F2E9DA;"
   d="M261.207,303.413c-0.234,0-0.47-0.095-0.668-0.289l-9.305-9.167          c-0.254-0.251-0.403-0.631-0.403-1.032c0-0.402,0.148-0.782,0.403-1.032l9.186-9.05c0.462-0.455,1.136-0.362,1.505,0.208          c0.369,0.57,0.294,1.401-0.168,1.857l-8.138,8.018l8.257,8.135c0.462,0.455,0.538,1.287,0.168,1.857          C261.833,303.243,261.522,303.413,261.207,303.413z"
   id="path210" />&#10;							</g>&#10;						</g>&#10;					</g>&#10;				</g>&#10;				<g
   id="g218">&#10;					<g
   id="g217">&#10;						<g
   id="g216">&#10;							<g
   id="g215">&#10;								<path
   style="fill:#F2E9DA;"
   d="M275.457,303.413c-0.315,0-0.626-0.17-0.838-0.497c-0.369-0.57-0.294-1.402,0.168-1.857          l8.257-8.135l-8.138-8.018c-0.462-0.455-0.538-1.287-0.168-1.857c0.37-0.57,1.044-0.663,1.505-0.208l9.186,9.05          c0.254,0.251,0.403,0.631,0.403,1.032c0,0.402-0.148,0.782-0.403,1.032l-9.305,9.167          C275.927,303.318,275.691,303.413,275.457,303.413z"
   id="path214" />&#10;							</g>&#10;						</g>&#10;					</g>&#10;				</g>&#10;				<g
   id="g222">&#10;					<g
   id="g221">&#10;						<g
   id="g220">&#10;							<g
   id="g219">&#10;								<path
   style="fill:#F2E9DA;"
   d="M266.242,305.837c-0.15,0.025-0.305,0.012-0.459-0.047c-0.565-0.215-0.883-0.954-0.709-1.651          l5.758-23.089c0.174-0.698,0.773-1.09,1.339-0.874c0.565,0.215,0.883,0.954,0.709,1.651l-5.758,23.089          C266.995,305.424,266.643,305.77,266.242,305.837z"
   id="path218" />&#10;							</g>&#10;						</g>&#10;					</g>&#10;				</g>&#10;			</g>&#10;		</g>&#10;		<g
   id="g241">&#10;			<g
   id="g225">&#10;				<rect
   x="166.949"
   y="177.229"
   style="fill:#FFBD29;"
   width="55.969"
   height="16.309"
   id="rect224" />&#10;			</g>&#10;			<g
   id="g226">&#10;				<rect
   x="166.949"
   y="198.612"
   style="fill:#FFBD29;"
   width="55.969"
   height="16.309"
   id="rect225" />&#10;			</g>&#10;			<g
   id="g227">&#10;				<rect
   x="166.949"
   y="219.739"
   style="fill:#FFBD29;"
   width="55.969"
   height="16.309"
   id="rect226" />&#10;			</g>&#10;			<g
   id="g228">&#10;				<path
   style="fill:#25292B;"
   d="M216.909,197.71h-43.95v-3.293h43.95V197.71z M173.959,196.71h41.95v-1.293h-41.95V196.71z"
   id="path227" />&#10;			</g>&#10;			<g
   id="g229">&#10;				<path
   style="fill:#25292B;"
   d="M216.909,219.154h-43.95v-3.293h43.95V219.154z M173.959,218.154h41.95v-1.293h-41.95V218.154z"
   id="path228" />&#10;			</g>&#10;			<g
   id="g230">&#10;				<path
   style="fill:#25292B;"
   d="M174.486,189.926c-2.402,0-4.357-1.955-4.357-4.357c0-2.402,1.955-4.357,4.357-4.357      s4.357,1.955,4.357,4.357C178.844,187.972,176.888,189.926,174.486,189.926z M174.486,182.212c-1.852,0-3.357,1.506-3.357,3.357      s1.506,3.357,3.357,3.357s3.357-1.506,3.357-3.357S176.338,182.212,174.486,182.212z"
   id="path229" />&#10;			</g>&#10;			<g
   id="g231">&#10;				<path
   style="fill:#25292B;"
   d="M174.486,210.495c-2.402,0-4.357-1.955-4.357-4.357c0-2.402,1.955-4.357,4.357-4.357      s4.357,1.955,4.357,4.357C178.844,208.541,176.888,210.495,174.486,210.495z M174.486,202.781c-1.852,0-3.357,1.506-3.357,3.357      s1.506,3.357,3.357,3.357s3.357-1.506,3.357-3.357S176.338,202.781,174.486,202.781z"
   id="path230" />&#10;			</g>&#10;			<g
   id="g232">&#10;				<path
   style="fill:#25292B;"
   d="M174.486,232.718c-2.402,0-4.357-1.955-4.357-4.357c0-2.403,1.955-4.357,4.357-4.357      s4.357,1.955,4.357,4.357C178.844,230.763,176.888,232.718,174.486,232.718z M174.486,225.003c-1.852,0-3.357,1.506-3.357,3.357      s1.506,3.357,3.357,3.357s3.357-1.506,3.357-3.357S176.338,225.003,174.486,225.003z"
   id="path231" />&#10;			</g>&#10;			<g
   id="g234">&#10;				<circle
   style="fill:#F2E9DA;"
   cx="198.305"
   cy="185.569"
   r="1.911"
   id="circle232" />&#10;				<circle
   style="fill:#F2E9DA;"
   cx="217.081"
   cy="185.569"
   r="1.911"
   id="circle233" />&#10;				<circle
   style="fill:#F2E9DA;"
   cx="207.99"
   cy="185.569"
   r="1.911"
   id="circle234" />&#10;			</g>&#10;			<g
   id="g237">&#10;				<circle
   style="fill:#F2E9DA;"
   cx="198.305"
   cy="206.766"
   r="1.911"
   id="circle235" />&#10;				<circle
   style="fill:#F2E9DA;"
   cx="217.081"
   cy="206.766"
   r="1.911"
   id="circle236" />&#10;				<circle
   style="fill:#F2E9DA;"
   cx="207.99"
   cy="206.766"
   r="1.911"
   id="circle237" />&#10;			</g>&#10;			<g
   id="g240">&#10;				<circle
   style="fill:#F2E9DA;"
   cx="198.305"
   cy="228.361"
   r="1.911"
   id="circle238" />&#10;				<circle
   style="fill:#F2E9DA;"
   cx="217.081"
   cy="228.361"
   r="1.911"
   id="circle239" />&#10;				<circle
   style="fill:#F2E9DA;"
   cx="207.99"
   cy="228.361"
   r="1.911"
   id="circle240" />&#10;			</g>&#10;		</g>&#10;	</g>&#10;</g>&#10;</svg>
